<svg width="72" height="22" viewBox="0 0 72 22" fill="none" xmlns="http://www.w3.org/2000/svg">
<path d="M3.91126 16.8516V11.5654H6.46346L9.70648 16.8516H14.1189L10.3984 10.7569C10.8274 10.5263 11.2134 10.2455 11.5554 9.91448C11.8975 9.58341 12.1876 9.21083 12.4257 8.79454C12.6639 8.37934 12.8468 7.93683 12.9743 7.467C13.1019 6.99717 13.1651 6.50877 13.1651 6.00069C13.1651 5.32327 13.0263 4.65458 12.7474 3.99245C12.4698 3.33032 12.0837 2.73812 11.5904 2.21475C11.0972 1.69138 10.5136 1.26854 9.83742 0.945121C9.16128 0.621704 8.42643 0.459995 7.63176 0.459995H0V16.8516H3.91126ZM7.48841 8.26461H3.91126V3.78594H7.36875C7.8135 3.78594 8.22776 3.98589 8.6093 4.3858C8.99083 4.7857 9.18159 5.32436 9.18159 6.00179C9.18159 6.67921 9.01453 7.20586 8.68041 7.62871C8.34629 8.05155 7.94895 8.26352 7.48841 8.26352V8.26461ZM19.2651 3.3478V0.00109244H15.4498V3.3478H19.2651ZM19.2651 16.8526V4.73216H15.4498V16.8516H19.2651V16.8526ZM25.6044 16.8526V9.90464C25.7161 9.59652 25.8708 9.31244 26.0695 9.05021C26.2681 8.78798 26.495 8.56181 26.749 8.3695C27.003 8.1772 27.266 8.02751 27.5358 7.91934C27.8055 7.81117 28.0764 7.75764 28.3462 7.75764C28.8553 7.75764 29.2639 7.93792 29.5744 8.29958C29.8848 8.66124 30.0394 9.24251 30.0394 10.0423V16.8526H33.8547V9.0961C33.8547 8.58803 33.8107 8.06466 33.7238 7.526C33.6369 6.98733 33.4574 6.49128 33.1876 6.03675C32.9178 5.58222 32.5363 5.21291 32.043 4.92883C31.5497 4.64366 30.8984 4.50161 30.088 4.50161C28.9908 4.50161 28.0211 4.69829 27.1779 5.09054C26.3347 5.48279 25.6834 6.04112 25.2229 6.76444V4.73325H21.7891V16.8526H25.6044ZM41.6739 22C42.7395 22 43.717 21.8612 44.6076 21.5848C45.4982 21.3073 46.2613 20.9117 46.8968 20.396C47.5323 19.8803 48.0301 19.2531 48.3868 18.5145C48.7446 17.7759 48.923 16.9444 48.923 16.0212V4.73216H45.6077V6.71746C45.1788 6.02473 44.6099 5.48279 43.9021 5.09054C43.1944 4.69829 42.3636 4.50161 41.4097 4.50161C40.5507 4.50161 39.764 4.66332 39.0483 4.98674C38.3326 5.31016 37.7208 5.75267 37.2118 6.31428C36.7027 6.87589 36.3053 7.53802 36.0198 8.29958C35.733 9.06114 35.5908 9.88825 35.5908 10.7809C35.5908 11.6277 35.7263 12.4199 35.9961 13.1585C36.2658 13.8971 36.644 14.5439 37.1294 15.0979C37.6147 15.6518 38.1983 16.09 38.8824 16.4134C39.5664 16.7368 40.3216 16.8985 41.1479 16.8985C41.9741 16.8985 42.7462 16.7259 43.4608 16.3795C44.1753 16.0332 44.725 15.5218 45.1065 14.8444V16.0212C45.1065 16.5904 45.0151 17.0788 44.8322 17.4875C44.6494 17.895 44.3988 18.2261 44.0805 18.4796C43.7621 18.7331 43.3964 18.9221 42.9833 19.0455C42.5701 19.169 42.1322 19.2302 41.6716 19.2302C40.8927 19.2302 40.1613 19.0805 39.4772 18.78C38.7932 18.4796 38.2209 18.0764 37.7604 17.5683L35.7093 19.5766C36.425 20.3611 37.2592 20.962 38.213 21.3772C39.1668 21.7924 40.3193 22 41.6705 22H41.6739ZM42.4606 13.967C42.0317 13.967 41.6378 13.8905 41.2799 13.7365C40.9221 13.5824 40.6083 13.3672 40.3374 13.0896C40.0665 12.8121 39.8565 12.4854 39.7053 12.1085C39.554 11.7315 39.4784 11.3196 39.4784 10.8738C39.4784 10.4586 39.5461 10.0543 39.6816 9.66208C39.817 9.26983 40.0078 8.92347 40.2539 8.62299C40.4999 8.32252 40.7945 8.08433 41.1366 7.90733C41.4786 7.73032 41.8556 7.64182 42.2699 7.64182C42.858 7.64182 43.4145 7.83084 43.9394 8.2078C44.4642 8.58475 44.8537 9.0961 45.1077 9.74294V12.2822C44.8537 12.775 44.4959 13.1781 44.0342 13.4939C43.5725 13.8097 43.0487 13.967 42.4606 13.967ZM54.8096 17.0602C55.3503 17.0602 55.9305 16.9991 56.5502 16.8756C57.1699 16.7521 57.7185 16.5828 58.196 16.3675L57.6948 13.5977C57.5041 13.7059 57.293 13.7867 57.0627 13.8403C56.8324 13.8938 56.6213 13.9211 56.4306 13.9211C55.6201 13.9211 55.2149 13.459 55.2149 12.5357V0H51.3995V13.8272C51.3995 14.8739 51.6942 15.6737 52.2823 16.2277C52.8704 16.7816 53.7136 17.0592 54.8108 17.0592L54.8096 17.0602ZM65.3232 17.0832C66.7703 17.0832 68.0097 16.7827 69.0437 16.1829C70.0777 15.583 70.8407 14.8051 71.3329 13.8512L68.0899 12.9738C67.9149 13.4196 67.5695 13.7736 67.0525 14.0359C66.5355 14.2981 65.9993 14.4281 65.4428 14.4281C64.743 14.4281 64.1188 14.2161 63.5702 13.7933C63.0216 13.3704 62.7157 12.7509 62.6525 11.9347H71.9052C71.9368 11.7807 71.9605 11.6004 71.9763 11.3928C71.9921 11.1852 72 10.9732 72 10.758C72 9.9265 71.8533 9.13434 71.5586 8.38043C71.264 7.62652 70.8317 6.96111 70.2594 6.38311C69.6871 5.80512 68.9873 5.3484 68.161 5.00968C67.3347 4.67097 66.3888 4.50161 65.3232 4.50161C64.2576 4.50161 63.3083 4.67097 62.473 5.00968C61.6388 5.3484 60.9345 5.80949 60.3622 6.39513C59.7899 6.97969 59.353 7.66039 59.0505 8.43834C58.748 9.2152 58.5979 10.0423 58.5979 10.9197C58.5979 11.7359 58.7491 12.516 59.0505 13.2623C59.353 14.0085 59.7932 14.6663 60.3746 15.2356C60.9559 15.8048 61.6625 16.255 62.4967 16.586C63.3309 16.9171 64.2734 17.0821 65.3232 17.0821V17.0832ZM67.9702 9.65006H62.5802C62.6593 8.89615 62.9414 8.29193 63.4268 7.8374C63.9122 7.38287 64.5274 7.15669 65.2747 7.15669C66.0219 7.15669 66.6179 7.37959 67.1112 7.82647C67.6045 8.27226 67.8901 8.88085 67.9702 9.65006Z" fill="#513CCD"/>
</svg>
